<svg width="42" height="42" version="1.1" viewBox="0 0 11.113 11.113" xmlns="http://www.w3.org/2000/svg"><path d="m7.7662 2.9382-2.6309-0.099074s-1.1307-2.4179-1.4514-1.892c-1.4211 0.76067-0.6586 2.2695-0.72572 2.8987-0.03356 0.31462-0.92841 1.3852-1.6596 2.7184-0.73116 1.3332-1.2986 2.9612-1.2986 2.9612l-2e-5 1.5871 8.636 0.08824-0.3736-1.1458s0.90283 0.3474 1.1323-0.64812c0.27882-1.2098 0.67231-2.7838 0.36012-4.1001-0.302-1.2734-0.35848-1.4606-0.35848-1.4606 0.44907-1.1057 0.89602-2.2121-0.28108-2.8865-0.3812-0.2184-0.8323 0.94106-1.3491 1.9785zm1.5948 2.1782h0.01481c0.51522 0.54137 0.39409 1.1525-0.27844 1.7054 0 0-0.59094-1.7054 0.26362-1.7054zm-4.0319 0.011571c1.0734-0.00892 1.0731 1.7743 1.0731 1.7743s-2.5281-0.40575-1.6854-1.623c0.1459-0.082897 0.27235-0.12076 0.38268-0.12442 0.081423-0.017583 0.15804-0.026349 0.22961-0.026944zm3.4268 3.5911c0.21694-0.014572 0.39352 0.38336 0.38195 0.5796-0.019983 0.33899-1.0996 0.22173-1.0697 0.00995 0.023481-0.16621 0.51349-0.57785 0.68771-0.58955z" fill="#fefefe"/></svg>
