<svg width="42" height="42" version="1.1" viewBox="0 0 11.113 11.113" xmlns="http://www.w3.org/2000/svg"><path d="m9.2605 1.3229c-0.41028-0.37762-1.4639 1.8298-1.4639 1.8298l-2.6613-0.31358s-1.977-2.3312-2.2977-1.8053c-1.1314 1.8559 0.18774 2.1828 0.12062 2.812-0.067121 0.62923-2.9582 5.6474-2.9582 5.6474v1.6193h7.4084l-0.24636-1.3253s2.0032 0.61513 2.2327-0.38039c0.27882-1.2098 0.67231-2.7838 0.36012-4.1001-0.302-1.2734-0.35848-1.4606-0.35848-1.4606 0.44907-1.1057 0.96944-1.5574-0.13588-2.5232zm-0.034804 3.7971c0.00482 0 0.00991 6.46e-5 0.01481 0 0.51522 0.54137 0.075055 1.2294-0.59747 1.7823 0 0-0.27191-1.7823 0.58265-1.7823zm-3.8966 0.00792c1.0734-0.00892 1.0731 1.7743 1.0731 1.7743s-2.5281-0.40575-1.6854-1.623c0.1459-0.082897 0.27235-0.12076 0.38268-0.12442 0.081423-0.017583 0.15804-0.026349 0.22961-0.026944zm3.4268 3.5911c0.21694-0.014572 0.39352 0.38336 0.38195 0.5796-0.019983 0.33899-1.0996 0.22173-1.0697 0.0099548 0.023481-0.16621 0.51349-0.57785 0.68771-0.58955z" fill="#fefefe"/></svg>
